<mxfile host="Electron" agent="Mozilla/5.0 (X11; Linux x86_64) AppleWebKit/537.36 (KHTML, like Gecko) draw.io/26.0.9 Chrome/128.0.6613.186 Electron/32.2.5 Safari/537.36" version="26.0.9">
  <diagram name="Page-1" id="CBhdW2UO380vjY0_73Ba">
    <mxGraphModel dx="1687" dy="987" grid="1" gridSize="10" guides="1" tooltips="1" connect="1" arrows="1" fold="1" page="1" pageScale="1" pageWidth="850" pageHeight="1100" math="0" shadow="0">
      <root>
        <mxCell id="0" />
        <mxCell id="1" parent="0" />
        <mxCell id="WWr17DbXUApwnIMX_Nig-5" style="edgeStyle=orthogonalEdgeStyle;rounded=0;orthogonalLoop=1;jettySize=auto;html=1;" edge="1" parent="1" source="WWr17DbXUApwnIMX_Nig-1" target="BMpZhagDLczxwb0fcwIL-1">
          <mxGeometry relative="1" as="geometry" />
        </mxCell>
        <mxCell id="WWr17DbXUApwnIMX_Nig-1" value="L1" style="rounded=0;whiteSpace=wrap;html=1;" vertex="1" parent="1">
          <mxGeometry x="80" y="40" width="80" height="40" as="geometry" />
        </mxCell>
        <mxCell id="WWr17DbXUApwnIMX_Nig-24" value="Chain Node" style="swimlane;whiteSpace=wrap;html=1;" vertex="1" parent="1">
          <mxGeometry x="40" y="120" width="760" height="410" as="geometry" />
        </mxCell>
        <mxCell id="WWr17DbXUApwnIMX_Nig-23" value="Chain Mgr" style="swimlane;whiteSpace=wrap;html=1;" vertex="1" parent="WWr17DbXUApwnIMX_Nig-24">
          <mxGeometry x="230" y="180" width="230" height="190" as="geometry" />
        </mxCell>
        <mxCell id="WWr17DbXUApwnIMX_Nig-2" value="CmtLog" style="rounded=0;whiteSpace=wrap;html=1;fillColor=#d5e8d4;strokeColor=#82b366;" vertex="1" parent="WWr17DbXUApwnIMX_Nig-23">
          <mxGeometry x="55" y="90" width="120" height="60" as="geometry" />
        </mxCell>
        <mxCell id="WWr17DbXUApwnIMX_Nig-3" value="Chain" style="rounded=0;whiteSpace=wrap;html=1;fillColor=#dae8fc;strokeColor=#6c8ebf;" vertex="1" parent="WWr17DbXUApwnIMX_Nig-24">
          <mxGeometry x="40" y="270" width="120" height="60" as="geometry" />
        </mxCell>
        <mxCell id="WWr17DbXUApwnIMX_Nig-9" value="Suspend()" style="rounded=0;orthogonalLoop=1;jettySize=auto;html=1;exitX=1;exitY=0.25;exitDx=0;exitDy=0;entryX=0;entryY=0.25;entryDx=0;entryDy=0;" edge="1" parent="WWr17DbXUApwnIMX_Nig-24" source="WWr17DbXUApwnIMX_Nig-3" target="WWr17DbXUApwnIMX_Nig-2">
          <mxGeometry relative="1" as="geometry">
            <mxPoint x="105" y="-160" as="sourcePoint" />
            <mxPoint x="225" y="-160" as="targetPoint" />
          </mxGeometry>
        </mxCell>
        <mxCell id="WWr17DbXUApwnIMX_Nig-17" value="CanPropose" style="rounded=0;orthogonalLoop=1;jettySize=auto;html=1;exitX=1;exitY=0.75;exitDx=0;exitDy=0;entryX=0;entryY=0.75;entryDx=0;entryDy=0;" edge="1" parent="WWr17DbXUApwnIMX_Nig-24" source="WWr17DbXUApwnIMX_Nig-3" target="WWr17DbXUApwnIMX_Nig-2">
          <mxGeometry relative="1" as="geometry">
            <mxPoint x="105" y="-130" as="sourcePoint" />
            <mxPoint x="225" y="-130" as="targetPoint" />
          </mxGeometry>
        </mxCell>
        <mxCell id="WWr17DbXUApwnIMX_Nig-4" value="ConsInst" style="rounded=0;whiteSpace=wrap;html=1;shadow=1;fillColor=#dae8fc;strokeColor=#6c8ebf;" vertex="1" parent="WWr17DbXUApwnIMX_Nig-24">
          <mxGeometry x="600" y="270" width="120" height="60" as="geometry" />
        </mxCell>
        <mxCell id="WWr17DbXUApwnIMX_Nig-11" value="ConsSkip(si)" style="rounded=0;orthogonalLoop=1;jettySize=auto;html=1;entryX=1;entryY=0.25;entryDx=0;entryDy=0;exitX=0;exitY=0.25;exitDx=0;exitDy=0;" edge="1" parent="WWr17DbXUApwnIMX_Nig-24" source="WWr17DbXUApwnIMX_Nig-4" target="WWr17DbXUApwnIMX_Nig-2">
          <mxGeometry x="0.003" relative="1" as="geometry">
            <mxPoint x="544.9999999999998" y="-160" as="sourcePoint" />
            <mxPoint x="345.0000000000002" y="-160" as="targetPoint" />
            <mxPoint as="offset" />
          </mxGeometry>
        </mxCell>
        <mxCell id="WWr17DbXUApwnIMX_Nig-12" value="ConsTimeout(si)" style="rounded=0;orthogonalLoop=1;jettySize=auto;html=1;entryX=1;entryY=0.75;entryDx=0;entryDy=0;exitX=0;exitY=0.75;exitDx=0;exitDy=0;" edge="1" parent="WWr17DbXUApwnIMX_Nig-24" source="WWr17DbXUApwnIMX_Nig-4" target="WWr17DbXUApwnIMX_Nig-2">
          <mxGeometry x="0.0023" relative="1" as="geometry">
            <mxPoint x="544.9999999999998" y="-130" as="sourcePoint" />
            <mxPoint x="345.0000000000002" y="-130" as="targetPoint" />
            <mxPoint as="offset" />
          </mxGeometry>
        </mxCell>
        <mxCell id="BMpZhagDLczxwb0fcwIL-1" value="NodeConn" style="rounded=0;whiteSpace=wrap;html=1;fillColor=#dae8fc;strokeColor=#6c8ebf;" parent="WWr17DbXUApwnIMX_Nig-24" vertex="1">
          <mxGeometry x="320" y="60" width="120" height="60" as="geometry" />
        </mxCell>
        <mxCell id="WWr17DbXUApwnIMX_Nig-6" style="rounded=0;orthogonalLoop=1;jettySize=auto;html=1;" edge="1" parent="WWr17DbXUApwnIMX_Nig-24" source="BMpZhagDLczxwb0fcwIL-1" target="WWr17DbXUApwnIMX_Nig-2">
          <mxGeometry relative="1" as="geometry">
            <Array as="points">
              <mxPoint x="250" y="130" />
            </Array>
          </mxGeometry>
        </mxCell>
        <mxCell id="WWr17DbXUApwnIMX_Nig-8" value="Confirmed(AO)" style="edgeLabel;html=1;align=center;verticalAlign=middle;resizable=0;points=[];" vertex="1" connectable="0" parent="WWr17DbXUApwnIMX_Nig-6">
          <mxGeometry x="-0.14" y="-1" relative="1" as="geometry">
            <mxPoint as="offset" />
          </mxGeometry>
        </mxCell>
        <mxCell id="WWr17DbXUApwnIMX_Nig-16" style="rounded=0;orthogonalLoop=1;jettySize=auto;html=1;dashed=1;" edge="1" parent="WWr17DbXUApwnIMX_Nig-24" source="BMpZhagDLczxwb0fcwIL-1" target="WWr17DbXUApwnIMX_Nig-3">
          <mxGeometry relative="1" as="geometry">
            <Array as="points">
              <mxPoint x="140" y="120" />
            </Array>
          </mxGeometry>
        </mxCell>
        <mxCell id="WWr17DbXUApwnIMX_Nig-10" value="ConsDone(si, b, n)" style="rounded=0;orthogonalLoop=1;jettySize=auto;html=1;" edge="1" parent="WWr17DbXUApwnIMX_Nig-24" source="WWr17DbXUApwnIMX_Nig-4" target="BMpZhagDLczxwb0fcwIL-1">
          <mxGeometry relative="1" as="geometry">
            <Array as="points">
              <mxPoint x="620" y="150" />
            </Array>
          </mxGeometry>
        </mxCell>
        <mxCell id="WWr17DbXUApwnIMX_Nig-13" value="ConsOut /&amp;nbsp;&lt;span style=&quot;background-color: light-dark(#ffffff, var(--ge-dark-color, #121212)); color: light-dark(rgb(0, 0, 0), rgb(255, 255, 255));&quot;&gt;Confirmed&lt;/span&gt;&lt;div&gt;ConsOut / Rejected&lt;span style=&quot;background-color: light-dark(#ffffff, var(--ge-dark-color, #121212)); color: light-dark(rgb(0, 0, 0), rgb(255, 255, 255));&quot;&gt;&lt;br&gt;&lt;/span&gt;&lt;/div&gt;" style="rounded=0;orthogonalLoop=1;jettySize=auto;html=1;" edge="1" parent="WWr17DbXUApwnIMX_Nig-24" source="BMpZhagDLczxwb0fcwIL-1" target="WWr17DbXUApwnIMX_Nig-2">
          <mxGeometry relative="1" as="geometry">
            <mxPoint x="285" y="-110" as="targetPoint" />
            <Array as="points">
              <mxPoint x="500" y="200" />
            </Array>
          </mxGeometry>
        </mxCell>
      </root>
    </mxGraphModel>
  </diagram>
</mxfile>
